<?xml version="1.0" encoding="utf-8"?>
<!-- Generator: Adobe Illustrator 25.0.0, SVG Export Plug-In . SVG Version: 6.00 Build 0)  -->
<svg version="1.1" id="圖層_1" xmlns:xml="http://www.w3.org/XML/1998/namespace"
	 xmlns="http://www.w3.org/2000/svg" xmlns:xlink="http://www.w3.org/1999/xlink" x="0px" y="0px" viewBox="0 0 25 23.3"
	 style="enable-background:new 0 0 25 23.3;" xml:space="preserve">
<path d="M16,4v4h4V4H16z M19,7h-2V5h2V7z M16,10v4h4v-4H16z M19,13h-2v-2h2V13z M10,4v4h4V4H10z M13,7h-2V5h2V7z M10,10v4h4v-4H10z
	 M13,13h-2v-2h2V13z M16,16v4h4v-4H16z M19,19h-2v-2h2V19z M10,16v4h4v-4H10z M13,19h-2v-2h2V19z M4,4v4h4V4H4z M7,7H5V5h2V7z M4,10
	v4h4v-4H4z M7,13H5v-2h2V13z M4,16v4h4v-4H4z M7,19H5v-2h2V19z"/>
</svg>
