<?xml version="1.0" encoding="utf-8"?>
<!-- Generator: Adobe Illustrator 25.0.0, SVG Export Plug-In . SVG Version: 6.00 Build 0)  -->
<svg version="1.1" id="圖層_1" xmlns:xml="http://www.w3.org/XML/1998/namespace"
	 xmlns="http://www.w3.org/2000/svg" xmlns:xlink="http://www.w3.org/1999/xlink" x="0px" y="0px" viewBox="0 0 25 23.3"
	 style="enable-background:new 0 0 25 23.3;" xml:space="preserve">
<path d="M12,16.5c0.8,0,1.5,0.7,1.5,1.5s-0.7,1.5-1.5,1.5s-1.5-0.7-1.5-1.5S11.2,16.5,12,16.5z M10.5,12c0,0.8,0.7,1.5,1.5,1.5
	s1.5-0.7,1.5-1.5s-0.7-1.5-1.5-1.5S10.5,11.2,10.5,12z M10.5,6c0,0.8,0.7,1.5,1.5,1.5s1.5-0.7,1.5-1.5S12.8,4.5,12,4.5
	S10.5,5.2,10.5,6z"/>
</svg>
