<?xml version="1.0" encoding="utf-8"?>
<!-- Generator: Adobe Illustrator 25.0.0, SVG Export Plug-In . SVG Version: 6.00 Build 0)  -->
<svg version="1.1" id="圖層_1" xmlns:xml="http://www.w3.org/XML/1998/namespace"
	 xmlns="http://www.w3.org/2000/svg" xmlns:xlink="http://www.w3.org/1999/xlink" x="0px" y="0px" viewBox="0 0 25 24.3"
	 style="enable-background:new 0 0 25 24.3;" xml:space="preserve">
<path d="M11.2,13.1c-0.3-0.2-0.5-0.5-0.5-0.9c-0.1-0.4,0-0.7,0.2-1c0.2-0.3,0.5-0.5,0.9-0.5c0.4-0.1,0.7,0,1,0.2
	c0.3,0.2,0.5,0.5,0.5,0.9c0.1,0.4,0,0.7-0.2,1c-0.2,0.3-0.5,0.5-0.9,0.5c-0.1,0-0.1,0-0.2,0C11.7,13.3,11.4,13.2,11.2,13.1z M22,12
	c0,5.5-4.5,10-10,10S2,17.5,2,12S6.5,2,12,2S22,6.5,22,12z M18,6L9.8,9.8L6,18l8.2-3.8L18,6z"/>
</svg>
