<?xml version="1.0" encoding="utf-8"?>
<!-- Generator: Adobe Illustrator 25.0.0, SVG Export Plug-In . SVG Version: 6.00 Build 0)  -->
<svg version="1.1" id="圖層_1" xmlns:xml="http://www.w3.org/XML/1998/namespace"
	 xmlns="http://www.w3.org/2000/svg" xmlns:xlink="http://www.w3.org/1999/xlink" x="0px" y="0px" viewBox="0 0 25 24.3"
	 style="enable-background:new 0 0 25 24.3;" xml:space="preserve">
<path d="M15.4,10c0,1.1-0.7,1.7-1.3,2.2c-0.5,0.5-1,0.9-1.2,1.6l0,0.2h-1.8l0-0.3c0.1-1.2,0.8-1.8,1.5-2.3c0.5-0.4,1-0.8,1-1.5
	c0-0.5-0.2-1-0.6-1.3c-0.4-0.3-0.9-0.4-1.4-0.3c-0.6,0.1-1.1,0.7-1.2,1.3L10.3,10H8.6l0.1-0.4c0.2-1.4,1.1-2.5,2.4-2.9
	c1.1-0.3,2.1-0.1,3,0.6C14.9,7.9,15.4,8.9,15.4,10z M12,18c0.6,0,1-0.5,1-1s-0.4-1-1-1s-1,0.5-1,1S11.4,18,12,18z M12,3
	c-5,0-9,4-9,9s4,9,9,9s9-4,9-9S17,3,12,3 M12,2c5.5,0,10,4.5,10,10s-4.5,10-10,10S2,17.5,2,12S6.5,2,12,2L12,2z"/>
</svg>
