<?xml version="1.0" encoding="utf-8"?>
<!-- Generator: Adobe Illustrator 25.0.0, SVG Export Plug-In . SVG Version: 6.00 Build 0)  -->
<svg version="1.1" id="圖層_1" xmlns:xml="http://www.w3.org/XML/1998/namespace"
	 xmlns="http://www.w3.org/2000/svg" xmlns:xlink="http://www.w3.org/1999/xlink" x="0px" y="0px" viewBox="0 0 25 23"
	 style="enable-background:new 0 0 25 23;" xml:space="preserve">
<path d="M15,17l-5-3.1V7h2v5.8l4,2.5L15,17z M22,12c0,5.5-4.5,10-10,10S2,17.5,2,12h1c0,5,4,9,9,9s9-4,9-9s-4-9-9-9
	C8.8,3,5.9,4.6,4.3,7.4C4.2,7.6,4.1,7.8,4,7.9c0,0,0,0,0,0.1H8v1H2V3h1v4.7C3,7.7,3,7.6,3.1,7.5c0.1-0.2,0.2-0.4,0.4-0.6
	C5.2,3.9,8.5,2,12,2C17.5,2,22,6.5,22,12z"/>
</svg>
