<svg xmlns="http://www.w3.org/2000/svg" id="圖層_1" style="" viewBox="0 0 25 20" x="0px" y="0px" xmlns:xml="http://www.w3.org/XML/1998/namespace" xml:space="preserve" version="1.1">
<path class="style-scope yt-icon" d="M 14 12 c 0 1.1 -0.9 2 -2 2 s -2 -0.9 -2 -2 s 0.9 -2 2 -2 S 14 10.9 14 12 Z M 8.48 8.45 L 7.77 7.75 C 6.68 8.83 6 10.34 6 12 s 0.68 3.17 1.77 4.25 l 0.71 -0.71 C 7.57 14.64 7 13.39 7 12 S 7.57 9.36 8.48 8.45 Z M 16.23 7.75 l -0.71 0.71 C 16.43 9.36 17 10.61 17 12 s -0.57 2.64 -1.48 3.55 l 0.71 0.71 C 17.32 15.17 18 13.66 18 12 S 17.32 8.83 16.23 7.75 Z M 5.65 5.63 L 4.95 4.92 C 3.13 6.73 2 9.24 2 12 s 1.13 5.27 2.95 7.08 l 0.71 -0.71 C 4.02 16.74 3 14.49 3 12 S 4.02 7.26 5.65 5.63 Z M 19.05 4.92 l -0.71 0.71 C 19.98 7.26 21 9.51 21 12 s -1.02 4.74 -2.65 6.37 l 0.71 0.71 C 20.87 17.27 22 14.76 22 12 S 20.87 6.73 19.05 4.92 Z" />
</svg>