<?xml version="1.0" encoding="utf-8"?>
<!-- Generator: Adobe Illustrator 25.0.0, SVG Export Plug-In . SVG Version: 6.00 Build 0)  -->
<svg version="1.1" id="圖層_1" xmlns:xml="http://www.w3.org/XML/1998/namespace"
	 xmlns="http://www.w3.org/2000/svg" xmlns:xlink="http://www.w3.org/1999/xlink" x="0px" y="0px" viewBox="0 0 25 23.5"
	 style="enable-background:new 0 0 25 23.5;" xml:space="preserve">
<path d="M12,9c1.6,0,3,1.4,3,3s-1.4,3-3,3s-3-1.4-3-3S10.4,9,12,9 M12,8c-2.2,0-4,1.8-4,4s1.8,4,4,4s4-1.8,4-4S14.2,8,12,8L12,8z
	 M13.2,3l0.6,2.2l0.1,0.5l0.5,0.2c0.6,0.2,1.2,0.6,1.7,1l0.4,0.3L17,7.1l2.2-0.6l1.2,2.1l-1.6,1.6l-0.4,0.4l0.1,0.5
	c0,0.3,0.1,0.6,0.1,1s0,0.7-0.1,1l-0.1,0.5l0.4,0.4l1.6,1.6l-1.2,2.1L17,16.9l-0.5-0.1l-0.4,0.3c-0.5,0.4-1.1,0.8-1.7,1l-0.5,0.2
	l-0.1,0.5L13.2,21h-2.4l-0.6-2.2l-0.1-0.5l-0.5-0.2c-0.6-0.2-1.2-0.6-1.7-1l-0.4-0.3L7,16.9l-2.2,0.6l-1.2-2.1l1.6-1.6l0.4-0.4
	L5.5,13c-0.1-0.3-0.1-0.6-0.1-1s0-0.7,0.1-1l0.1-0.5l-0.4-0.4L3.6,8.6l1.2-2.1L7,7.1l0.5,0.1l0.4-0.3c0.5-0.4,1.1-0.8,1.7-1l0.5-0.2
	l0.1-0.5L10.8,3H13.2 M14,2h-4L9.3,5c-0.7,0.3-1.4,0.7-2,1.1L4.3,5.3l-2,3.5l2.2,2.1c-0.1,0.4-0.1,0.8-0.1,1.1s0,0.8,0.1,1.1
	l-2.2,2.1l2,3.5l2.9-0.8c0.6,0.5,1.3,0.9,2,1.1l0.7,3h4l0.7-3c0.7-0.3,1.4-0.7,2-1.1l2.9,0.8l2-3.5l-2.2-2.1
	c0.1-0.4,0.1-0.8,0.1-1.1s0-0.8-0.1-1.1l2.2-2.1l-2-3.5l-2.9,0.8c-0.6-0.5-1.3-0.9-2-1.1L14,2L14,2z"/>
</svg>
