<?xml version="1.0" encoding="utf-8"?>
<!-- Generator: Adobe Illustrator 25.0.0, SVG Export Plug-In . SVG Version: 6.00 Build 0)  -->
<svg version="1.1" id="圖層_1" xmlns:xml="http://www.w3.org/XML/1998/namespace"
	 xmlns="http://www.w3.org/2000/svg" xmlns:xlink="http://www.w3.org/1999/xlink" x="0px" y="0px" viewBox="0 0 25 24.3"
	 style="enable-background:new 0 0 25 24.3;" xml:space="preserve">
<path d="M9.8,9.8L6,18l8.2-3.8L18,6L9.8,9.8z M13.1,12.8c-0.2,0.3-0.5,0.5-0.9,0.5c-0.1,0-0.1,0-0.2,0c-0.3,0-0.5-0.1-0.8-0.2
	c-0.3-0.2-0.5-0.5-0.5-0.9c-0.1-0.4,0-0.7,0.2-1c0.2-0.3,0.5-0.5,0.9-0.5c0.4-0.1,0.7,0,1,0.2c0.3,0.2,0.5,0.5,0.5,0.9
	C13.4,12.1,13.3,12.5,13.1,12.8z M12,3c5,0,9,4,9,9s-4,9-9,9s-9-4-9-9S7,3,12,3 M12,2C6.5,2,2,6.5,2,12s4.5,10,10,10s10-4.5,10-10
	S17.5,2,12,2L12,2z"/>
</svg>
