<?xml version="1.0" encoding="utf-8"?>
<!-- Generator: Adobe Illustrator 25.0.0, SVG Export Plug-In . SVG Version: 6.00 Build 0)  -->
<svg version="1.1" id="圖層_1" xmlns:xml="http://www.w3.org/XML/1998/namespace"
	 xmlns="http://www.w3.org/2000/svg" xmlns:xlink="http://www.w3.org/1999/xlink" x="0px" y="0px" viewBox="0 0 25 16.6"
	 style="enable-background:new 0 0 25 16.6;" xml:space="preserve">
<path d="M10,6l5,2.7l-5,2.6V6z M12,2.6C9.5,2.6,6.9,2.7,4.4,3C3.9,3.1,3.5,3.5,3.4,4.1C3.1,5.6,3,7.1,3,8.6c0,1.5,0.1,3.1,0.4,4.6
	c0.1,0.5,0.5,0.9,1.1,1.1c2.5,0.3,5,0.4,7.6,0.4c2.5,0,5.1-0.1,7.6-0.4c0.5-0.1,0.9-0.5,1.1-1.1c0.3-1.5,0.4-3,0.4-4.6
	c0-1.5-0.1-3.1-0.4-4.6c-0.1-0.5-0.5-0.9-1.1-1.1C17.1,2.7,14.5,2.6,12,2.6L12,2.6 M12,1.6c0,0,6.2,0,7.8,0.4
	c0.9,0.2,1.5,0.9,1.8,1.8C21.9,5.4,22,7,22,8.6c0,1.6-0.1,3.2-0.4,4.8c-0.2,0.9-0.9,1.5-1.8,1.8c-1.6,0.4-7.8,0.4-7.8,0.4
	s-6.2,0-7.8-0.4c-0.9-0.2-1.5-0.9-1.8-1.8C2.1,11.8,2,10.2,2,8.6C2,7,2.1,5.4,2.4,3.8C2.7,2.9,3.3,2.3,4.2,2C5.8,1.6,12,1.6,12,1.6z
	"/>
</svg>
