<?xml version="1.0" encoding="utf-8"?>
<!-- Generator: Adobe Illustrator 25.0.0, SVG Export Plug-In . SVG Version: 6.00 Build 0)  -->
<svg version="1.1" id="圖層_1" xmlns:xml="http://www.w3.org/XML/1998/namespace"
	 xmlns="http://www.w3.org/2000/svg" xmlns:xlink="http://www.w3.org/1999/xlink" x="0px" y="0px" viewBox="0 0 25 25.3"
	 style="enable-background:new 0 0 25 25.3;" xml:space="preserve">
<style type="text/css">
	.st0{fill:#0066FF;}
</style>
<path class="st0" d="M12,3.5C6.5,3.5,2,8,2,13.5s4.5,10,10,10s10-4.5,10-10S17.5,3.5,12,3.5z M12,4.5c5,0,9,4,9,9
	c0,1.4-0.3,2.8-0.9,4c-1.5-1.7-4-2.9-7.4-3c1.9-0.4,3.3-2,3.3-4c0-2.2-1.8-4-4-4s-4,1.8-4,4c0,2,1.4,3.6,3.3,3.9
	c-3.4,0.1-5.8,1.3-7.4,3C3.3,16.3,3,14.9,3,13.5C3,8.5,7,4.5,12,4.5z M9,10.5c0-1.7,1.4-3,3-3s3,1.3,3,3s-1.4,3-3,3S9,12.1,9,10.5z
	 M12,22.5c-3.2,0-5.9-1.6-7.6-4.1c1.6-2,4.2-3,7.6-3s6,1,7.5,3C17.9,20.9,15.2,22.5,12,22.5z"/>
</svg>
