<?xml version="1.0" encoding="utf-8"?>
<!-- Generator: Adobe Illustrator 25.0.0, SVG Export Plug-In . SVG Version: 6.00 Build 0)  -->
<svg version="1.1" id="圖層_1" xmlns="http://www.w3.org/2000/svg" xmlns:xlink="http://www.w3.org/1999/xlink" x="0px" y="0px"
	 viewBox="0 0 90 20" style="enable-background:new 0 0 90 20;" xml:space="preserve">
<style type="text/css">
	.st0{fill:#FF0000;}
	.st1{fill:#FFFFFF;}
</style>
<g>
	<g>
		<g>
			<path class="st0" d="M28.18,3.12c-0.33-1.23-1.3-2.2-2.53-2.53C23.43,0,14.49,0,14.49,0S5.56,0,3.33,0.6
				C2.1,0.93,1.13,1.89,0.8,3.12C0.21,5.35,0.21,10,0.21,10s0,4.65,0.6,6.88c0.33,1.23,1.3,2.2,2.53,2.53C5.56,20,14.49,20,14.49,20
				s8.93,0,11.16-0.6c1.23-0.33,2.2-1.3,2.53-2.53c0.6-2.23,0.6-6.88,0.6-6.88S28.77,5.35,28.18,3.12z"/>
			<path class="st1" d="M11.63,14.29L19.05,10l-7.42-4.29V14.29z"/>
		</g>
		<g>
			<g id="youtube-paths">
				<path d="M34.81,13L31.6,1.42h2.8l1.12,5.25c0.29,1.29,0.5,2.4,0.63,3.31h0.08c0.09-0.65,0.31-1.75,0.63-3.29l1.16-5.27h2.8
					L37.59,13v5.56h-2.78L34.81,13L34.81,13z"/>
				<path d="M41.68,18.19c-0.56-0.38-0.97-0.97-1.21-1.78c-0.24-0.8-0.36-1.87-0.36-3.21v-1.82c0-1.35,0.14-2.43,0.41-3.25
					c0.27-0.82,0.7-1.41,1.28-1.79c0.58-0.37,1.34-0.56,2.28-0.56c0.93,0,1.67,0.19,2.23,0.57c0.56,0.38,0.97,0.98,1.23,1.79
					c0.26,0.81,0.39,1.89,0.39,3.24v1.82c0,1.34-0.13,2.41-0.38,3.22c-0.25,0.81-0.66,1.4-1.23,1.78c-0.56,0.37-1.33,0.56-2.3,0.56
					C43.02,18.77,42.24,18.57,41.68,18.19z M44.84,16.23c0.16-0.41,0.24-1.07,0.24-2v-3.9c0-0.9-0.08-1.56-0.24-1.97
					c-0.16-0.42-0.43-0.62-0.83-0.62c-0.38,0-0.65,0.21-0.81,0.62c-0.16,0.42-0.24,1.07-0.24,1.97v3.9c0,0.93,0.08,1.59,0.23,2
					c0.15,0.41,0.42,0.61,0.82,0.61C44.41,16.85,44.68,16.64,44.84,16.23z"/>
				<path d="M57.02,18.56h-2.21l-0.24-1.53h-0.06c-0.6,1.16-1.5,1.74-2.7,1.74c-0.83,0-1.44-0.27-1.84-0.82
					c-0.4-0.55-0.59-1.4-0.59-2.55V6.04h2.82v9.19c0,0.56,0.06,0.96,0.18,1.19c0.12,0.24,0.33,0.36,0.61,0.36
					c0.24,0,0.48-0.08,0.71-0.23c0.23-0.15,0.39-0.34,0.5-0.57V6.04h2.82V18.56z"/>
				<path d="M64.68,3.69h-2.8v14.88h-2.76V3.69h-2.8V1.42h8.36V3.69z"/>
				<path d="M71.48,18.56h-2.21l-0.24-1.53h-0.06c-0.6,1.16-1.5,1.74-2.7,1.74c-0.83,0-1.44-0.27-1.84-0.82
					c-0.4-0.55-0.59-1.4-0.59-2.55V6.04h2.82v9.19c0,0.56,0.06,0.96,0.18,1.19c0.12,0.24,0.33,0.36,0.61,0.36
					c0.24,0,0.48-0.08,0.71-0.23c0.23-0.15,0.39-0.34,0.5-0.57V6.04h2.82V18.56z"/>
				<path d="M80.81,8.04c-0.17-0.79-0.45-1.36-0.83-1.72c-0.38-0.36-0.91-0.53-1.57-0.53c-0.52,0-1,0.15-1.45,0.44
					c-0.45,0.29-0.8,0.68-1.04,1.15H75.9v-6.6h-2.72v17.78h2.33l0.29-1.19h0.06c0.22,0.42,0.55,0.75,0.98,1
					c0.44,0.24,0.92,0.37,1.45,0.37c0.95,0,1.66-0.44,2.1-1.32c0.45-0.88,0.67-2.25,0.67-4.12v-1.98
					C81.07,9.93,80.98,8.83,80.81,8.04z M78.23,13.15c0,0.91-0.04,1.63-0.11,2.14c-0.08,0.52-0.2,0.89-0.38,1.1
					c-0.18,0.22-0.42,0.33-0.71,0.33c-0.23,0-0.45-0.05-0.64-0.16c-0.2-0.11-0.36-0.27-0.48-0.49V8.96
					c0.09-0.34,0.26-0.62,0.49-0.84c0.23-0.22,0.48-0.33,0.75-0.33c0.29,0,0.51,0.11,0.66,0.34c0.16,0.23,0.27,0.6,0.33,1.13
					c0.06,0.53,0.09,1.29,0.09,2.27L78.23,13.15L78.23,13.15z"/>
				<path d="M85.07,13.87c0,0.8,0.02,1.41,0.07,1.81c0.05,0.4,0.15,0.69,0.3,0.88c0.15,0.18,0.38,0.28,0.69,0.28
					c0.42,0,0.71-0.16,0.87-0.49c0.16-0.33,0.24-0.87,0.26-1.63l2.43,0.14c0.01,0.11,0.02,0.26,0.02,0.45
					c0,1.16-0.32,2.02-0.95,2.59c-0.63,0.57-1.53,0.86-2.69,0.86c-1.39,0-2.36-0.44-2.92-1.31c-0.56-0.87-0.84-2.22-0.84-4.05v-2.19
					c0-1.88,0.29-3.25,0.87-4.12c0.58-0.87,1.57-1.3,2.97-1.3c0.97,0,1.71,0.18,2.23,0.53c0.52,0.36,0.88,0.91,1.09,1.66
					c0.21,0.75,0.32,1.79,0.32,3.11v2.14h-4.72V13.87z M85.43,7.97c-0.14,0.18-0.24,0.47-0.29,0.87c-0.05,0.4-0.07,1.01-0.07,1.83
					v0.9h2.06v-0.9c0-0.8-0.03-1.41-0.08-1.83C87,8.42,86.9,8.13,86.76,7.96c-0.14-0.17-0.36-0.26-0.66-0.26
					C85.79,7.7,85.57,7.79,85.43,7.97z"/>
			</g>
		</g>
	</g>
</g>
</svg>
